<?xml version="1.0" encoding="UTF-8"?>
<svg width="479px" height="66px" viewBox="0 0 479 66" version="1.1" xmlns="http://www.w3.org/2000/svg" xmlns:xlink="http://www.w3.org/1999/xlink">
    <!-- Generator: Sketch 53.2 (72643) - https://sketchapp.com -->
    <title>GDPRExpert</title>
    <desc>Created with Sketch.</desc>
    <g id="Page-1" stroke="none" stroke-width="1" fill="none" fill-rule="evenodd">
        <g id="GDPRExpert" transform="translate(0.769000, -7.404000)">
            <path d="M48.564,59.404 L40.612,59.404 L39.973,53.653 C38.6949936,55.5936764 36.789846,57.2148268 34.2575,58.5165 C31.725154,59.8181732 28.6840177,60.469 25.134,60.469 C18.1286316,60.469 12.1883577,58.0786906 7.313,53.298 C2.43764229,48.5173094 0,42.1747062 0,34.27 C0,26.4126274 2.5204748,20.0700241 7.5615,15.242 C12.6025252,10.4139759 18.6729645,8 25.773,8 C31.9263641,8 36.9554805,9.49098509 40.8605,12.473 C44.7655195,15.4550149 47.4043265,19.1233116 48.777,23.478 L39.405,26.815 C38.6476629,24.2116537 37.1211781,21.9515096 34.8255,20.0345 C32.5298219,18.1174904 29.512352,17.159 25.773,17.159 C21.5129787,17.159 17.8091824,18.6263187 14.6615,21.561 C11.5138176,24.4956813 9.94,28.7319723 9.94,34.27 C9.94,39.7133606 11.4664847,43.9496515 14.5195,46.979 C17.5725153,50.0083485 21.3473109,51.523 25.844,51.523 C30.0093542,51.523 33.2043222,50.4698439 35.429,48.3635 C37.6536778,46.2571561 38.9553314,44.0443449 39.334,41.725 L23.43,41.725 L23.43,33.205 L48.564,33.205 L48.564,59.404 Z M68.231,50.316 L76.041,50.316 C80.443022,50.316 84.0639858,48.9433471 86.904,46.198 C89.7440142,43.4526529 91.164,39.4766927 91.164,34.27 C91.164,29.0633073 89.7440142,25.0755138 86.904,22.3065 C84.0639858,19.5374862 80.4666884,18.153 76.112,18.153 L68.231,18.153 L68.231,50.316 Z M76.396,59.404 L58.433,59.404 L58.433,9.065 L76.467,9.065 C83.8037033,9.065 89.7794769,11.3133109 94.3945,15.81 C99.0095231,20.3066892 101.317,26.459961 101.317,34.27 C101.317,42.0327055 98.9976899,48.1623109 94.359,52.659 C89.7203101,57.1556891 83.7327033,59.404 76.396,59.404 Z M119.706,31.998 L127.445,31.998 C129.859012,31.998 131.775993,31.3471732 133.196,30.0455 C134.616007,28.7438268 135.326,27.0043442 135.326,24.827 C135.326,22.6023222 134.62784,20.8391732 133.2315,19.5375 C131.83516,18.2358268 129.906346,17.585 127.445,17.585 L119.706,17.585 L119.706,31.998 Z M128.652,40.447 L119.635,40.447 L119.635,59.404 L109.837,59.404 L109.837,9.065 L128.652,9.065 C133.574691,9.065 137.562485,10.5323187 140.6155,13.467 C143.668515,16.4016813 145.195,20.1646437 145.195,24.756 C145.195,29.3473563 143.668515,33.1103187 140.6155,36.045 C137.562485,38.9796813 133.574691,40.447 128.652,40.447 Z M177.713,59.404 L167.844,40.021 L162.732,40.021 L162.732,59.404 L152.863,59.404 L152.863,9.065 L172.53,9.065 C177.358024,9.065 181.239319,10.5323187 184.174,13.467 C187.108681,16.4016813 188.576,20.0936444 188.576,24.543 C188.576,28.0456842 187.61751,31.063154 185.7005,33.5955 C183.78349,36.127846 181.16835,37.8673286 177.855,38.814 L188.647,59.404 L177.713,59.404 Z M162.732,31.572 L170.684,31.572 C173.145346,31.572 175.07416,30.9330064 176.4705,29.655 C177.86684,28.3769936 178.565,26.6966771 178.565,24.614 C178.565,22.4839894 177.86684,20.7800064 176.4705,19.502 C175.07416,18.2239936 173.145346,17.585 170.684,17.585 L162.732,17.585 L162.732,31.572 Z" id="GDPR" fill="#3F3F3F" fill-rule="nonzero"></path>
            <path d="M228.762,59.404 L197.238,59.404 L197.238,9.065 L228.762,9.065 L228.762,18.295 L207.036,18.295 L207.036,29.797 L226.703,29.797 L226.703,38.53 L207.036,38.53 L207.036,50.174 L228.762,50.174 L228.762,59.404 Z M233.661,59.404 L246.086,41.867 L233.661,24.472 L244.879,24.472 C245.305002,25.13467 246.47649,26.8741526 248.3935,29.6905 C250.31051,32.5068474 251.458331,34.2226636 251.837,34.838 L258.724,24.472 L269.445,24.472 L257.233,41.583 L269.871,59.404 L258.795,59.404 L251.482,48.683 C251.245332,49.0616686 250.570839,50.0793251 249.4585,51.736 C248.346161,53.3926749 247.304838,54.9428261 246.3345,56.3865 C245.364162,57.8301739 244.689669,58.8359972 244.311,59.404 L233.661,59.404 Z M285.065,72.894 L275.622,72.894 L275.622,24.472 L284.781,24.472 L284.781,28.732 C285.633004,27.3119929 287.005657,26.1168382 288.899,25.1465 C290.792343,24.1761618 292.993321,23.691 295.502,23.691 C300.472025,23.691 304.400652,25.3831497 307.288,28.7675 C310.175348,32.1518503 311.619,36.5183066 311.619,41.867 C311.619,47.2156934 310.092515,51.6176494 307.0395,55.073 C303.986485,58.5283506 300.022358,60.256 295.147,60.256 C290.50831,60.256 287.147677,58.8360142 285.065,55.996 L285.065,72.894 Z M299.833,49.18 C301.489675,47.3813243 302.318,44.9673485 302.318,41.938 C302.318,38.9086515 301.501508,36.5183421 299.8685,34.767 C298.235492,33.0156579 296.164679,32.14 293.656,32.14 C291.147321,32.14 289.064675,33.0274911 287.408,34.8025 C285.751325,36.5775089 284.923,38.9559851 284.923,41.938 C284.923,44.9200149 285.751325,47.3103243 287.408,49.109 C289.064675,50.9076757 291.147321,51.807 293.656,51.807 C296.164679,51.807 298.223659,50.9313421 299.833,49.18 Z M325.961,37.962 L341.581,37.962 C341.486333,36.0213236 340.788173,34.38834 339.4865,33.063 C338.184827,31.73766 336.279679,31.075 333.771,31.075 C331.498989,31.075 329.653007,31.7849929 328.233,33.205 C326.812993,34.6250071 326.055667,36.2106579 325.961,37.962 Z M342.504,47.05 L350.385,49.393 C349.438329,52.6116828 347.580514,55.2623229 344.8115,57.345 C342.042486,59.4276771 338.599021,60.469 334.481,60.469 C329.463642,60.469 325.203684,58.7768503 321.701,55.3925 C318.198316,52.0081497 316.447,47.4760284 316.447,41.796 C316.447,36.399973 318.150983,31.9861838 321.559,28.5545 C324.967017,25.1228162 328.99031,23.407 333.629,23.407 C339.025027,23.407 343.249485,25.0163172 346.3025,28.235 C349.355515,31.4536828 350.882,35.8793052 350.882,41.512 C350.882,41.8906686 350.870167,42.3166643 350.8465,42.79 C350.822833,43.2633357 350.811,43.6419986 350.811,43.926 L350.74,44.423 L325.748,44.423 C325.842667,46.6950114 326.741991,48.5883258 328.446,50.103 C330.150009,51.6176742 332.185321,52.375 334.552,52.375 C338.575353,52.375 341.225994,50.6000178 342.504,47.05 Z M379.637,24.33 L379.637,33.844 C378.690329,33.6546657 377.743671,33.56 376.797,33.56 C374.098987,33.56 371.921675,34.329159 370.265,35.8675 C368.608325,37.405841 367.78,39.9263158 367.78,43.429 L367.78,59.404 L358.337,59.404 L358.337,24.472 L367.496,24.472 L367.496,29.655 C369.200009,26.0103151 372.513309,24.188 377.436,24.188 C377.956669,24.188 378.690329,24.2353329 379.637,24.33 Z M397.742,14.035 L397.742,24.472 L404.771,24.472 L404.771,32.85 L397.742,32.85 L397.742,47.476 C397.742,48.9433407 398.07333,49.9846636 398.736,50.6 C399.39867,51.2153364 400.439993,51.523 401.86,51.523 C403.138006,51.523 404.10833,51.4283343 404.771,51.239 L404.771,59.049 C403.398326,59.6170028 401.623344,59.901 399.446,59.901 C396.037983,59.901 393.34001,58.9425096 391.352,57.0255 C389.36399,55.1084904 388.37,52.4696835 388.37,49.109 L388.37,32.85 L382.051,32.85 L382.051,24.472 L383.826,24.472 C385.577342,24.472 386.914495,23.9631718 387.8375,22.9455 C388.760505,21.9278282 389.222,20.5906749 389.222,18.934 L389.222,14.035 L397.742,14.035 Z" id="Expert" fill="#006EE5" fill-rule="nonzero"></path>
            <text id=".io" font-family="CircularStd-Black, Circular Std" font-size="60" font-weight="700" letter-spacing="-0.800000012" fill="#3F3F3F">
                <tspan x="409.231" y="60.404">.io</tspan>
            </text>
        </g>
    </g>
</svg>